<svg xmlns="http://www.w3.org/2000/svg" width="33.418" height="32.649" viewBox="0 0 33.418 32.649">
  <g id="Group_39" data-name="Group 39" transform="translate(-817.959 -136.127)">
    <path id="Path_11" data-name="Path 11" d="M31.391,17.117a5.35,5.35,0,0,1-.7,2.5,5.488,5.488,0,0,0-.722,2.5.713.713,0,0,0,1.427,0,4.255,4.255,0,0,1,.579-1.878,6.662,6.662,0,0,0,.848-3.116,5.421,5.421,0,0,0-.79-2.794,4.184,4.184,0,0,1-.638-2.2.713.713,0,1,0-1.427,0,5.551,5.551,0,0,0,.8,2.865,4.067,4.067,0,0,1,.625,2.129m-2.915,5.3-13.6-13.6v0L12.859,6.8l-.007,0L7.307,1.249A4.281,4.281,0,0,0,1.253,7.3L22.422,28.472a.72.72,0,0,0,1.01,0l5.044-5.045a.714.714,0,0,0,0-1.009M12.351,8.31l1.01,1.009-.519.519q-.231-.259-.475-.505l-.013-.013h0q-.253-.253-.519-.489l.518-.519m-.117,3.026c.006.009.016.011.021.019a4.923,4.923,0,0,1,1.06,1.955,4.9,4.9,0,0,1-1.953-1.057c-.009-.007-.013-.019-.021-.026a11.293,11.293,0,0,1-1.009-.892,11.024,11.024,0,0,1-.889-1.007c-.007-.01-.02-.014-.027-.023A4.9,4.9,0,0,1,8.361,8.357,4.914,4.914,0,0,1,10.323,9.42l.014.017a11.253,11.253,0,0,1,.986.873l.02.019.021.023a11.434,11.434,0,0,1,.869.985m-4.928,0L2.263,6.293A2.854,2.854,0,0,1,6.3,2.256L11.345,7.3l-.635.636c-1.337-.933-2.667-1.373-3.4-.638-.357.357-.641,1.067.039,2.424a8.219,8.219,0,0,0,.6.973l-.638.638m2.02,2.019-1.01-1.009.519-.519c.156.174.317.347.489.519.051.051.1.1.154.146.12.117.24.234.364.345l-.517.518m13.6,13.6L10.332,14.362l.631-.631a4.7,4.7,0,0,0,2.44,1.007,1.322,1.322,0,0,0,.969-.374c.357-.357.641-1.066-.039-2.423a8.206,8.206,0,0,0-.6-.975l.636-.636L26.962,22.92l-4.035,4.037m7.861.21L27.17,30.785a.713.713,0,0,0,1.009,1.009L31.8,28.175a.713.713,0,0,0-1.009-1.009M29.778,25.15a.714.714,0,0,0-1.009,0l-3.617,3.617a.713.713,0,0,0,1.009,1.009l3.617-3.617a.714.714,0,0,0,0-1.009" transform="translate(818.259 136.428)" fill="#fff" stroke="#fff" stroke-width="0.6"/>
  </g>
</svg>
