<svg xmlns="http://www.w3.org/2000/svg" width="26.415" height="30.817" viewBox="0 0 26.415 30.817">
  <path id="Layer_5" data-name="Layer 5" d="M27.113,2H7.3A3.3,3.3,0,0,0,4,5.3V29.515a3.3,3.3,0,0,0,3.3,3.3H27.113a3.3,3.3,0,0,0,3.3-3.3V5.3a3.3,3.3,0,0,0-3.3-3.3Zm1.1,3.3V16.308H18.308V4.2h8.8A1.1,1.1,0,0,1,28.214,5.3ZM6.2,13.006h9.906v8.8H6.2ZM7.3,4.2h8.8v6.6H6.2V5.3A1.1,1.1,0,0,1,7.3,4.2ZM6.2,29.515v-5.5h9.906v6.6H7.3A1.1,1.1,0,0,1,6.2,29.515Zm20.912,1.1h-8.8V18.509h9.906V29.515A1.1,1.1,0,0,1,27.113,30.616Z" transform="translate(-4 -2)" fill="#fff"/>
</svg>
