<svg xmlns="http://www.w3.org/2000/svg" width="30.822" height="33.995" viewBox="0 0 30.822 33.995">
  <path id="snowflake" d="M15.072,289.063v4.114l-2.824-2.582-1.636,1.793,4.46,4.079v4.688l-2.428,1.4-4.06-2.343-1.3-5.9-2.371.524.825,3.735-3.564-2.056-1.214,2.1,3.562,2.056L.875,301.823l.733,2.317,5.762-1.826,4.06,2.345v2.8l-4.06,2.345-5.762-1.826L.875,310.3l3.645,1.155L.958,313.509l1.214,2.1,3.564-2.056-.825,3.735,2.371.524,1.3-5.9,4.06-2.343,2.428,1.4v4.688l-4.46,4.079,1.636,1.793,2.824-2.582v4.114H17.5v-4.114l2.824,2.582,1.636-1.793-4.46-4.079v-4.688l2.428-1.4,4.06,2.343,1.3,5.9,2.371-.524-.825-3.735L30.4,315.61l1.214-2.1-3.562-2.056L31.7,310.3l-.733-2.317L25.2,309.807l-4.06-2.345v-2.8l4.06-2.345,5.762,1.826.733-2.317-3.645-1.155,3.562-2.056-1.214-2.1-3.564,2.056.825-3.735-2.371-.524-1.3,5.9-4.06,2.343-2.428-1.4v-4.688l4.46-4.079-1.636-1.793L17.5,293.177v-4.114Zm1.214,14.195,2.428,1.4v2.8l-2.428,1.4-2.428-1.4v-2.8Z" transform="translate(-0.875 -289.063)" fill="#fff"/>
</svg>
