<svg xmlns="http://www.w3.org/2000/svg" width="20.371" height="28.01" viewBox="0 0 20.371 28.01">
  <path id="Layer_68" data-name="Layer 68" d="M23.263,5.724,19.7,2.133A3.82,3.82,0,0,0,16.986,1H7.82A3.82,3.82,0,0,0,4,4.82V25.191a3.82,3.82,0,0,0,3.82,3.82H20.551a3.82,3.82,0,0,0,3.82-3.82V8.41a3.82,3.82,0,0,0-1.108-2.686ZM21.3,7.366H19.278a1.273,1.273,0,0,1-1.273-1.273V4.043Zm-.751,19.1H7.82a1.273,1.273,0,0,1-1.273-1.273V4.82A1.273,1.273,0,0,1,7.82,3.546h7.639V6.093a3.82,3.82,0,0,0,3.82,3.82h2.546V25.191A1.273,1.273,0,0,1,20.551,26.464Zm-1.273-8.912a1.273,1.273,0,0,1-1.273,1.273H15.459v2.546a1.273,1.273,0,1,1-2.546,0V18.825H10.366a1.273,1.273,0,0,1,0-2.546h2.546V13.732a1.273,1.273,0,1,1,2.546,0v2.546h2.546A1.273,1.273,0,0,1,19.278,17.551Z" transform="translate(-4 -1)" fill="#be955d"/>
</svg>
