<svg xmlns="http://www.w3.org/2000/svg" width="25.574" height="30.668" viewBox="0 0 25.574 30.668">
  <path id="barrel" d="M58.7.848A26.211,26.211,0,0,0,51.7,0a26.212,26.212,0,0,0-7,.848c-2.264.657-3.451,1.606-3.532,2.821A33.958,33.958,0,0,0,38.84,15.653a34.677,34.677,0,0,0,2.09,12.181,1.049,1.049,0,0,0,.55.6,24.517,24.517,0,0,0,20.229.1,1.049,1.049,0,0,0,.554-.6A35.2,35.2,0,0,0,62.23,3.624C62.124,2.431,60.939,1.5,58.7.848h0Zm-13.01,1.9A25.308,25.308,0,0,1,51.7,2.1a25.308,25.308,0,0,1,6.006.653A5.285,5.285,0,0,1,60.1,3.8a5.284,5.284,0,0,1-2.4,1.052,25.308,25.308,0,0,1-6.006.653,25.308,25.308,0,0,1-6.006-.653,5.285,5.285,0,0,1-2.4-1.052,5.284,5.284,0,0,1,2.4-1.052Zm2.47,13.91a29.249,29.249,0,0,1,1.576-9.112,33.446,33.446,0,0,0,3.778.007,29.27,29.27,0,0,1,1.573,9.1,43.834,43.834,0,0,1-6.927,0ZM42.589,5.888a13.03,13.03,0,0,0,4.989,1.455,32.784,32.784,0,0,0-1.508,9.1q-1.495-.191-2.973-.487l-.412,2.057q1.665.333,3.352.54a36.231,36.231,0,0,0,1.235,9.586,22.2,22.2,0,0,1-4.515-1.435,31.84,31.84,0,0,1-.168-20.818Zm7,22.6a32.021,32.021,0,0,1-1.451-9.724,45.938,45.938,0,0,0,6.976,0A31.97,31.97,0,0,1,53.657,28.5a22.2,22.2,0,0,1-4.069-.016ZM60.442,26.8a22.2,22.2,0,0,1-4.473,1.376,36.153,36.153,0,0,0,1.245-9.626,45.326,45.326,0,0,0,5.038-.909A33.252,33.252,0,0,1,60.442,26.8ZM55.679,7.361A13.278,13.278,0,0,0,60.788,5.9,33.292,33.292,0,0,1,62.3,15.471a43.16,43.16,0,0,1-5.119.971,32.824,32.824,0,0,0-1.5-9.081Z" transform="translate(-38.838)" fill="#fff"/>
</svg>
