<svg xmlns="http://www.w3.org/2000/svg" width="34.717" height="34.902" viewBox="0 0 34.717 34.902">
  <g id="_11-food" data-name="11-food" transform="translate(0.5 0.683)">
    <path id="Path_5" data-name="Path 5" d="M6.322,11.239H3.512A3.516,3.516,0,0,1,0,7.727V.7A.7.7,0,0,1,1.4.7V7.727A2.107,2.107,0,0,0,3.512,9.834h2.81A2.107,2.107,0,0,0,8.429,7.727V.7a.7.7,0,0,1,1.4,0V7.727a3.516,3.516,0,0,1-3.512,3.512Z" transform="translate(0 0.002)" fill="#fff" stroke="#fff" stroke-width="1"/>
    <path id="Path_6" data-name="Path 6" d="M4.7,7.024a.7.7,0,0,1-.7-.7V.7A.7.7,0,0,1,5.4.7v5.62A.7.7,0,0,1,4.7,7.024Zm2.81,0a.7.7,0,0,1-.7-.7V.7a.7.7,0,1,1,1.4,0v5.62A.7.7,0,0,1,7.512,7.024Zm-.7,26.693H5.4a1.4,1.4,0,0,1-1.4-1.4V10.537a.7.7,0,0,1,1.4,0V32.312h1.4V10.537a.7.7,0,0,1,1.4,0V32.312A1.4,1.4,0,0,1,6.81,33.717Zm26.693,0H32.1a1.4,1.4,0,0,1-1.4-1.4V24.586H28.586a.7.7,0,0,1-.7-.7c0-19.1,5.66-23.562,5.9-23.743A.7.7,0,0,1,34.907.7v31.61A1.4,1.4,0,0,1,33.5,33.717ZM29.288,23.181H31.4a.7.7,0,0,1,.7.7v8.429h1.4V2.643C31.965,4.987,29.384,10.762,29.288,23.181Z" transform="translate(-1.19 0.002)" fill="#fff" stroke="#fff" stroke-width="1"/>
    <path id="Path_7" data-name="Path 7" d="M31.371,5.954a.7.7,0,0,1-.492-.2A15.476,15.476,0,0,0,14.757,2.364a.7.7,0,0,1-.492-1.317,16.88,16.88,0,0,1,17.6,3.7.7.7,0,0,1-.492,1.208ZM20.132,33.716a16.825,16.825,0,0,1-8.8-2.474.7.7,0,1,1,.733-1.2,15.459,15.459,0,0,0,18.81-2.088.706.706,0,1,1,.983,1.012,16.771,16.771,0,0,1-11.731,4.748Z" transform="translate(-3.273 0.003)" fill="#fff" stroke="#fff" stroke-width="1"/>
    <path id="Path_8" data-name="Path 8" d="M20.245,30.881a11.835,11.835,0,0,1-8.672-3.731.7.7,0,1,1,1.02-.967,10.537,10.537,0,0,0,15.554-.275.7.7,0,0,1,1.054.93A11.952,11.952,0,0,1,20.245,30.881Zm9.736-16.859a.7.7,0,0,1-.608-.351,10.544,10.544,0,0,0-14.4-3.863.7.7,0,1,1-.7-1.216,11.948,11.948,0,0,1,16.314,4.377.7.7,0,0,1-.608,1.054Z" transform="translate(-3.386 -2.079)" fill="#fff" stroke="#fff" stroke-width="1"/>
  </g>
</svg>
