<svg xmlns="http://www.w3.org/2000/svg" width="25.464" height="28.01" viewBox="0 0 25.464 28.01">
  <path id="Layer_3" data-name="Layer 3" d="M14.732,13.732A6.366,6.366,0,1,0,8.366,7.366,6.366,6.366,0,0,0,14.732,13.732Zm0-10.185a3.82,3.82,0,1,1-3.82,3.82,3.82,3.82,0,0,1,3.82-3.82ZM21.1,16.278H8.366A6.366,6.366,0,0,0,2,22.644v2.546a3.82,3.82,0,0,0,3.82,3.82H23.644a3.82,3.82,0,0,0,3.82-3.82V22.644A6.366,6.366,0,0,0,21.1,16.278Zm3.82,8.912a1.273,1.273,0,0,1-1.273,1.273H5.82a1.273,1.273,0,0,1-1.273-1.273V22.644a3.82,3.82,0,0,1,3.82-3.82H21.1a3.82,3.82,0,0,1,3.82,3.82Z" transform="translate(-2 -1)" fill="#be955d"/>
</svg>
