<svg xmlns="http://www.w3.org/2000/svg" width="20.542" height="25.677" viewBox="0 0 20.542 25.677">
  <path id="document" d="M24.542,10.91a1.682,1.682,0,0,0-.077-.347v-.116a1.374,1.374,0,0,0-.244-.359h0l-7.7-7.7h0a1.374,1.374,0,0,0-.359-.244h-.116L15.632,2H7.852A3.852,3.852,0,0,0,4,5.852V23.826a3.852,3.852,0,0,0,3.852,3.852H20.69a3.852,3.852,0,0,0,3.852-3.852V10.91Zm-7.7-4.532L20.164,9.7H16.839Zm5.135,17.448A1.284,1.284,0,0,1,20.69,25.11H7.852a1.284,1.284,0,0,1-1.284-1.284V5.852A1.284,1.284,0,0,1,7.852,4.568h6.419v6.419a1.284,1.284,0,0,0,1.284,1.284h6.419Z" transform="translate(-4 -2)" fill="#fff"/>
</svg>
